<svg id="Capa_1" data-name="Capa 1" xmlns="http://www.w3.org/2000/svg" viewBox="0 0 136.04 99.31"><defs><style>.cls-1{fill:#010002;}</style></defs><title>dock_location</title><path class="cls-1" d="M107,73.09h-6.43c-1.71,2.14-3.52,4.19-5.39,6.11h6.75L123,111.57H13L34.09,79.2h6.75c-1.87-1.93-3.68-4-5.4-6.11H29L0,117.67H136Z" transform="translate(0 -18.37)"/><path class="cls-1" d="M68,18.37c-21.23,0-38.44,12.92-38.44,28.85C29.57,72.22,68,95.3,68,95.3s38.44-23.08,38.44-48.08C106.45,31.29,89.24,18.37,68,18.37Zm0,40.4c-8.48,0-15.38-5.17-15.38-11.55S59.53,35.68,68,35.68s15.38,5.17,15.38,11.54S76.49,58.77,68,58.77Z" transform="translate(0 -18.37)"/></svg>