<svg id="Layer_1" data-name="Layer 1" xmlns="http://www.w3.org/2000/svg" xmlns:xlink="http://www.w3.org/1999/xlink" viewBox="0 0 453.49 185.71"><defs><style>.cls-1{fill:none;}.cls-2{isolation:isolate;}.cls-3{fill:#515353;}.cls-4{clip-path:url(#clip-path);}.cls-5{fill:#5b5c5c;}.cls-6{fill:#5d5e5e;}.cls-7{fill:#595b5a;}.cls-8{fill:#575959;}.cls-9{fill:#555757;}.cls-10{fill:#535555;}.cls-11{fill:#525353;}.cls-12{fill:#505151;}.cls-13{clip-path:url(#clip-path-2);}.cls-14{clip-path:url(#clip-path-3);}.cls-15{clip-path:url(#clip-path-4);}.cls-16{fill:#717272;}.cls-17{fill:#4f5050;}.cls-18{fill:#626363;}.cls-19{clip-path:url(#clip-path-5);}.cls-20{clip-path:url(#clip-path-6);}.cls-21{clip-path:url(#clip-path-7);}.cls-22{clip-path:url(#clip-path-8);}.cls-23{fill:#4e4f4f;}.cls-24{clip-path:url(#clip-path-9);}.cls-25{clip-path:url(#clip-path-10);}.cls-26{clip-path:url(#clip-path-11);}.cls-27{clip-path:url(#clip-path-12);}.cls-28{clip-path:url(#clip-path-13);}</style><clipPath id="clip-path" transform="translate(23.39 -58.25)"><path class="cls-1" d="M21.06,187.88l12.91,7c4.53,2.46,6.49,5.55,6.48,10.09,0,7.86-6.16,13.91-17.76,15.54a55.94,55.94,0,0,1-28-3.55l-12.91-7a55.94,55.94,0,0,0,28,3.55c11.6-1.63,17.75-7.68,17.76-15.54C27.54,193.44,25.59,190.35,21.06,187.88Z"/></clipPath><clipPath id="clip-path-2" transform="translate(23.39 -58.25)"><path class="cls-1" d="M22.5,162.46l-12.91-7c3.37,1.83,8.26,3.32,14.84,5.08A59.52,59.52,0,0,1,37.9,165.6l12.91,7a59.52,59.52,0,0,0-13.46-5.08C30.76,165.77,25.87,164.29,22.5,162.46Z"/></clipPath><clipPath id="clip-path-3" transform="translate(23.39 -58.25)"><path class="cls-1" d="M33.46,117.17l-12.91-7c12.58-1.77,21.88-.22,28.49,2l12.91,7C55.34,117,46,115.4,33.46,117.17Z"/></clipPath><clipPath id="clip-path-4" transform="translate(23.39 -58.25)"><path class="cls-1" d="M6.91,185.26l-12.91-7c-9.87-5.37-15.76-13.64-15.74-25.86,0-20.57,16-38.52,42.3-42.23l12.91,7c-26.34,3.7-42.26,21.65-42.3,42.23C-8.85,171.62-3,179.89,6.91,185.26Z"/></clipPath><clipPath id="clip-path-5" transform="translate(23.39 -58.25)"><path class="cls-1" d="M167,194.33l-12.91-7c5.52,3,12.3,4,19.95,3,5.78-.81,10.42-2.18,12.41-3.55l12.91,7c-2,1.37-6.62,2.74-12.41,3.55C179.33,198.37,172.54,197.33,167,194.33Z"/></clipPath><clipPath id="clip-path-6" transform="translate(23.39 -58.25)"><path class="cls-1" d="M189.32,96l-12.91-7c14.39-2,25.5-.58,31,1.51l12.91,7C214.82,95.41,203.71,94,189.32,96Z"/></clipPath><clipPath id="clip-path-7" transform="translate(23.39 -58.25)"><path class="cls-1" d="M148.52,214.74l-12.91-7a38.52,38.52,0,0,1-7.45-5.28c-10.26-8.93-15.84-23.87-15.67-41.6,0.25-40.08,27.29-66.74,63.92-71.88l12.91,7c-36.62,5.15-63.67,31.81-63.92,71.88-0.17,17.73,5.41,32.66,15.67,41.6A38.51,38.51,0,0,0,148.52,214.74Z"/></clipPath><clipPath id="clip-path-8" transform="translate(23.39 -58.25)"><path class="cls-1" d="M314.84,165l-12.91-7a479.6,479.6,0,0,1-2.07-50.09l12.91,7A479.6,479.6,0,0,0,314.84,165Z"/></clipPath><clipPath id="clip-path-9" transform="translate(23.39 -58.25)"><path class="cls-1" d="M285.56,157.69l-12.91-7a387.94,387.94,0,0,1-19.29-39.81l12.91,7A387.94,387.94,0,0,0,285.56,157.69Z"/></clipPath><clipPath id="clip-path-10" transform="translate(23.39 -58.25)"><path class="cls-1" d="M384.9,136.75l12.91,7c4.53,2.47,6.48,5.56,6.47,10.1,0,7.86-6.16,13.91-17.76,15.54a55.69,55.69,0,0,1-28-3.55l-12.91-7a55.69,55.69,0,0,0,28,3.55c11.6-1.63,17.75-7.68,17.76-15.54C391.38,142.3,389.44,139.21,384.9,136.75Z"/></clipPath><clipPath id="clip-path-11" transform="translate(23.39 -58.25)"><path class="cls-1" d="M386.33,111.32l-12.91-7c3.37,1.83,8.26,3.32,14.84,5.08a59.52,59.52,0,0,1,13.46,5.08l12.91,7a59.52,59.52,0,0,0-13.46-5.08C394.59,114.64,389.7,113.15,386.33,111.32Z"/></clipPath><clipPath id="clip-path-12" transform="translate(23.39 -58.25)"><path class="cls-1" d="M397.3,66l-12.91-7c12.61-1.77,21.88-.22,28.49,2l12.91,7C419.18,65.82,409.91,64.26,397.3,66Z"/></clipPath><clipPath id="clip-path-13" transform="translate(23.39 -58.25)"><path class="cls-1" d="M370.74,134.12l-12.91-7c-9.87-5.37-15.76-13.64-15.74-25.86,0-20.57,16-38.52,42.3-42.23l12.91,7C371,69.74,355,87.69,355,108.26,355,120.49,360.87,128.75,370.74,134.12Z"/></clipPath></defs><title>dock_signs</title><g class="cls-2"><polygon class="cls-3" points="12.91 181.99 0 174.97 5.17 151.72 18.07 158.74 12.91 181.99"/><g class="cls-2"><g class="cls-4"><g class="cls-2"><path class="cls-5" d="M-5.32,217l-12.91-7a50.8,50.8,0,0,0,6.61,2.19l12.91,7A50.8,50.8,0,0,1-5.32,217" transform="translate(23.39 -58.25)"/><path class="cls-6" d="M1.29,219.18l-12.91-7a55.65,55.65,0,0,0,21.39,1.36,30.14,30.14,0,0,0,8.63-2.44l12.91,7a30.14,30.14,0,0,1-8.63,2.44,55.65,55.65,0,0,1-21.39-1.36" transform="translate(23.39 -58.25)"/><path class="cls-5" d="M31.31,218.1l-12.91-7a20.14,20.14,0,0,0,2.88-1.64l12.91,7a20.14,20.14,0,0,1-2.88,1.64" transform="translate(23.39 -58.25)"/><path class="cls-7" d="M34.19,216.46l-12.91-7A16.79,16.79,0,0,0,23,208.1l12.91,7a16.79,16.79,0,0,1-1.7,1.34" transform="translate(23.39 -58.25)"/><path class="cls-8" d="M35.89,215.12L23,208.1a15,15,0,0,0,1.2-1.21l12.91,7a15,15,0,0,1-1.2,1.21" transform="translate(23.39 -58.25)"/><path class="cls-9" d="M37.09,213.91l-12.91-7a13.89,13.89,0,0,0,1-1.22l12.91,7a13.89,13.89,0,0,1-1,1.22" transform="translate(23.39 -58.25)"/><path class="cls-10" d="M38.06,212.69l-12.91-7a13.2,13.2,0,0,0,.82-1.33l12.91,7a13.2,13.2,0,0,1-.82,1.33" transform="translate(23.39 -58.25)"/><path class="cls-11" d="M38.88,211.35l-12.91-7a12.89,12.89,0,0,0,.75-1.67l12.91,7a12.89,12.89,0,0,1-.75,1.67" transform="translate(23.39 -58.25)"/><path class="cls-12" d="M39.63,209.68l-12.91-7a13.63,13.63,0,0,0,.81-4.68c0-4.54-1.95-7.63-6.48-10.09l12.91,7c4.53,2.46,6.49,5.55,6.48,10.09a13.63,13.63,0,0,1-.81,4.68" transform="translate(23.39 -58.25)"/></g></g></g><g class="cls-2"><g class="cls-13"><g class="cls-2"><path class="cls-7" d="M22.5,162.46l-12.91-7,0.89,0.46,12.91,7-0.89-.46" transform="translate(23.39 -58.25)"/><path class="cls-5" d="M23.38,162.91l-12.91-7c3.32,1.63,7.93,3,14,4.62a62.72,62.72,0,0,1,11.84,4.25l12.91,7a62.72,62.72,0,0,0-11.84-4.25c-6-1.61-10.64-3-14-4.62" transform="translate(23.39 -58.25)"/><path class="cls-7" d="M49.18,171.78l-12.91-7q0.83,0.41,1.62.84l12.91,7q-0.79-.43-1.62-0.84" transform="translate(23.39 -58.25)"/></g></g></g><g class="cls-2"><g class="cls-14"><g class="cls-2"><path class="cls-6" d="M33.46,117.17l-12.91-7c10.47-1.47,18.67-.64,24.94,1l12.91,7c-6.27-1.63-14.47-2.46-24.94-1" transform="translate(23.39 -58.25)"/><path class="cls-5" d="M58.41,118.15l-12.91-7c1.26,0.33,2.44.69,3.55,1.07l12.91,7c-1.11-.38-2.29-0.74-3.55-1.07" transform="translate(23.39 -58.25)"/></g></g></g><g class="cls-2"><g class="cls-15"><g class="cls-2"><path class="cls-12" d="M6.91,185.26l-12.91-7c-9.87-5.37-15.76-13.64-15.74-25.86a38.84,38.84,0,0,1,2.35-13.3l12.91,7a38.84,38.84,0,0,0-2.35,13.3c0,12.22,5.87,20.49,15.74,25.86" transform="translate(23.39 -58.25)"/><path class="cls-11" d="M-6.48,146.1l-12.91-7A39,39,0,0,1-17.11,134l12.91,7a39,39,0,0,0-2.27,5.06" transform="translate(23.39 -58.25)"/><path class="cls-10" d="M-4.21,141l-12.91-7a40,40,0,0,1,2.49-4l12.91,7a40,40,0,0,0-2.49,4" transform="translate(23.39 -58.25)"/><path class="cls-9" d="M-1.72,137l-12.91-7a41.31,41.31,0,0,1,2.87-3.63l12.91,7A41.31,41.31,0,0,0-1.72,137" transform="translate(23.39 -58.25)"/><path class="cls-8" d="M1.15,133.37l-12.91-7a43.14,43.14,0,0,1,3.47-3.5l12.91,7a43.14,43.14,0,0,0-3.47,3.5" transform="translate(23.39 -58.25)"/><path class="cls-7" d="M4.62,129.87l-12.91-7a45.72,45.72,0,0,1,4.61-3.63l12.91,7a45.72,45.72,0,0,0-4.61,3.63" transform="translate(23.39 -58.25)"/><path class="cls-5" d="M9.23,126.24l-12.91-7a49.84,49.84,0,0,1,7.12-4.08l12.91,7a49.84,49.84,0,0,0-7.12,4.08" transform="translate(23.39 -58.25)"/><path class="cls-6" d="M16.35,122.15l-12.91-7a59.62,59.62,0,0,1,17.12-5l12.91,7a59.62,59.62,0,0,0-17.12,5" transform="translate(23.39 -58.25)"/></g></g></g><path class="cls-16" d="M33.46,117.17C46,115.4,55.34,117,62,119.22L56.27,142a46.07,46.07,0,0,0-23.34-2.43c-10.94,1.54-16.25,7.62-16.26,13.9,0,7.67,6.29,10.21,20.67,14.05,19.71,5.13,29,14.88,28.92,31.88,0,20.2-14.46,39.55-45.12,43.86-12.75,1.79-25.32-.16-31.63-3L-5.32,217a55.94,55.94,0,0,0,28,3.55c11.6-1.63,17.75-7.68,17.76-15.54,0-7.48-5.31-11-18.71-14.33C3.21,186.28-8.86,176.88-8.83,159.4-8.79,138.83,7.12,120.87,33.46,117.17Z" transform="translate(23.39 -58.25)"/></g><g class="cls-2"><polygon class="cls-16" points="132.22 50.29 131.99 170.78 106.63 174.34 106.85 53.85 132.22 50.29"/><polygon class="cls-17" points="106.63 174.34 93.72 167.32 93.94 46.83 106.85 53.85 106.63 174.34"/><polygon class="cls-18" points="106.85 53.85 93.94 46.83 119.31 43.27 132.22 50.29 106.85 53.85"/></g><g class="cls-2"><polygon class="cls-17" points="222.77 135.5 209.86 128.48 209.91 103.28 222.81 110.31 222.77 135.5"/><g class="cls-2"><g class="cls-19"><g class="cls-2"><path class="cls-7" d="M167,194.33l-12.91-7,0.93,0.48,12.91,7-0.93-.48" transform="translate(23.39 -58.25)"/><path class="cls-5" d="M168,194.81l-12.91-7a27.06,27.06,0,0,0,5.19,1.91l12.91,7a27.06,27.06,0,0,1-5.19-1.91" transform="translate(23.39 -58.25)"/><path class="cls-6" d="M173.15,196.72l-12.91-7a35.46,35.46,0,0,0,13.82.58,42.26,42.26,0,0,0,11.12-2.83l12.91,7A42.26,42.26,0,0,1,187,197.3a35.46,35.46,0,0,1-13.82-.58" transform="translate(23.39 -58.25)"/><path class="cls-5" d="M198.09,194.47l-12.91-7a9.18,9.18,0,0,0,1.29-.72l12.91,7a9.18,9.18,0,0,1-1.29.72" transform="translate(23.39 -58.25)"/></g></g></g><polygon class="cls-17" points="205.6 112.72 192.69 105.7 192.73 84.42 205.64 91.44 205.6 112.72"/><polygon class="cls-18" points="205.64 91.44 192.73 84.42 234.3 78.58 247.21 85.6 205.64 91.44"/><g class="cls-2"><g class="cls-20"><g class="cls-2"><path class="cls-6" d="M189.32,96l-12.91-7c12.26-1.72,22.14-.93,28.18.64l12.91,7c-6-1.57-15.92-2.36-28.18-.64" transform="translate(23.39 -58.25)"/><path class="cls-5" d="M217.5,96.62l-12.91-7a26.46,26.46,0,0,1,2.78.88l12.91,7a26.46,26.46,0,0,0-2.78-.88" transform="translate(23.39 -58.25)"/></g></g></g><path class="cls-16" d="M189.32,96c14.39-2,25.5-.58,31,1.51l-5.34,22.56c-6.13-2-13.75-3.22-26-1.49-21,3-37,18.05-37,44.15,0,24.86,14.35,37.5,35,34.59,5.78-.81,10.42-2.18,12.41-3.55l0-25.2L182.21,171l0-21.29,41.57-5.84-0.12,63.48c-7.78,4-22.52,9.93-37.26,12-20.38,2.86-35.11-.59-45.37-9.87-10.26-8.93-15.84-23.87-15.67-41.6C125.65,127.79,152.7,101.13,189.32,96Z" transform="translate(23.39 -58.25)"/><g class="cls-2"><g class="cls-21"><g class="cls-2"><path class="cls-12" d="M148.52,214.74l-12.91-7a38.51,38.51,0,0,1-7.45-5.28c-10.26-8.93-15.84-23.87-15.67-41.6a78.06,78.06,0,0,1,4.59-26.48l12.91,7a78.06,78.06,0,0,0-4.59,26.48c-0.17,17.73,5.41,32.66,15.67,41.6a38.51,38.51,0,0,0,7.45,5.28" transform="translate(23.39 -58.25)"/><path class="cls-11" d="M130,141.38l-12.91-7a68.69,68.69,0,0,1,4-8.87l12.91,7a68.69,68.69,0,0,0-4,8.87" transform="translate(23.39 -58.25)"/><path class="cls-10" d="M134,132.51l-12.91-7a66.8,66.8,0,0,1,4.16-6.76l12.91,7a66.8,66.8,0,0,0-4.16,6.76" transform="translate(23.39 -58.25)"/><path class="cls-9" d="M138.14,125.75l-12.91-7a66.48,66.48,0,0,1,4.61-5.85l12.91,7a66.48,66.48,0,0,0-4.61,5.85" transform="translate(23.39 -58.25)"/><path class="cls-8" d="M142.74,119.91l-12.91-7a67.27,67.27,0,0,1,5.44-5.48l12.91,7a67.27,67.27,0,0,0-5.44,5.48" transform="translate(23.39 -58.25)"/><path class="cls-7" d="M148.18,114.42l-12.91-7a69.24,69.24,0,0,1,6.9-5.45l12.91,7a69.24,69.24,0,0,0-6.9,5.45" transform="translate(23.39 -58.25)"/><path class="cls-5" d="M155.09,109l-12.91-7a73.15,73.15,0,0,1,10.55-6.05l12.91,7A73.15,73.15,0,0,0,155.09,109" transform="translate(23.39 -58.25)"/><path class="cls-6" d="M165.63,102.92l-12.91-7A82.76,82.76,0,0,1,176.41,89l12.91,7a82.76,82.76,0,0,0-23.69,6.94" transform="translate(23.39 -58.25)"/></g></g></g></g><g class="cls-2"><polygon class="cls-18" points="337.74 106.82 324.83 99.8 325.32 99.73 338.23 106.75 337.74 106.82"/><g class="cls-2"><g class="cls-22"><g class="cls-2"><path class="cls-12" d="M314.84,165l-12.91-7a479.6,479.6,0,0,1-2.07-50.09l12.91,7A479.6,479.6,0,0,0,314.84,165" transform="translate(23.39 -58.25)"/></g></g></g><polygon class="cls-23" points="332.69 142.57 319.78 135.55 296.04 92.42 308.94 99.44 332.69 142.57"/><polygon class="cls-17" points="336.16 56.66 323.25 49.64 323.32 14.59 336.22 21.61 336.16 56.66"/><polygon class="cls-18" points="336.22 21.61 323.32 14.59 346.52 11.33 359.43 18.35 336.22 21.61"/><g class="cls-2"><g class="cls-24"><g class="cls-2"><path class="cls-12" d="M285.56,157.69l-12.91-7a387.94,387.94,0,0,1-19.29-39.81l12.91,7a387.94,387.94,0,0,0,19.29,39.81" transform="translate(23.39 -58.25)"/></g></g></g><polygon class="cls-18" points="266.99 31.34 254.08 24.32 283.6 20.18 296.5 27.2 266.99 31.34"/><polygon class="cls-17" points="266.77 151.84 253.86 144.82 254.08 24.32 266.99 31.34 266.77 151.84"/><path class="cls-16" d="M336,76.6L335.82,197.1l-26.52,3.73-23.75-43.13a387.94,387.94,0,0,1-19.29-39.81l-0.52.22c0.63,15.82,1,32.76.91,52.43l-0.07,36.29-23.21,3.26L243.6,89.59l29.51-4.15,23.09,40.89a313.33,313.33,0,0,1,18.15,38.73l0.49-.07a479.6,479.6,0,0,1-2.07-50.09l0.07-35Z" transform="translate(23.39 -58.25)"/></g><g class="cls-2"><polygon class="cls-3" points="376.74 130.86 363.83 123.83 369.03 100.58 381.94 107.6 376.74 130.86"/><g class="cls-2"><g class="cls-25"><g class="cls-2"><path class="cls-5" d="M358.55,165.85l-12.91-7a50.12,50.12,0,0,0,6.63,2.2l12.91,7a50.12,50.12,0,0,1-6.63-2.2" transform="translate(23.39 -58.25)"/><path class="cls-6" d="M365.18,168.05l-12.91-7a55.53,55.53,0,0,0,21.34,1.35,30.14,30.14,0,0,0,8.63-2.44l12.91,7a30.14,30.14,0,0,1-8.63,2.44,55.53,55.53,0,0,1-21.34-1.35" transform="translate(23.39 -58.25)"/><path class="cls-5" d="M395.14,167l-12.91-7a20.14,20.14,0,0,0,2.88-1.64l12.91,7a20.14,20.14,0,0,1-2.88,1.64" transform="translate(23.39 -58.25)"/><path class="cls-7" d="M398,165.32l-12.91-7a16.79,16.79,0,0,0,1.7-1.34l12.91,7a16.79,16.79,0,0,1-1.7,1.34" transform="translate(23.39 -58.25)"/><path class="cls-8" d="M399.72,164l-12.91-7a15,15,0,0,0,1.2-1.21l12.91,7a15,15,0,0,1-1.2,1.21" transform="translate(23.39 -58.25)"/><path class="cls-9" d="M400.93,162.78l-12.91-7a13.89,13.89,0,0,0,1-1.22l12.91,7a13.89,13.89,0,0,1-1,1.22" transform="translate(23.39 -58.25)"/><path class="cls-10" d="M401.89,161.55l-12.91-7a13.2,13.2,0,0,0,.82-1.33l12.91,7a13.2,13.2,0,0,1-.82,1.33" transform="translate(23.39 -58.25)"/><path class="cls-11" d="M402.71,160.22l-12.91-7a12.89,12.89,0,0,0,.75-1.67l12.91,7a12.89,12.89,0,0,1-.75,1.67" transform="translate(23.39 -58.25)"/><path class="cls-12" d="M403.47,158.55l-12.91-7a13.63,13.63,0,0,0,.81-4.68c0-4.54-1.94-7.63-6.47-10.1l12.91,7c4.53,2.47,6.48,5.56,6.47,10.1a13.63,13.63,0,0,1-.81,4.68" transform="translate(23.39 -58.25)"/></g></g></g><g class="cls-2"><g class="cls-26"><g class="cls-2"><path class="cls-7" d="M386.33,111.32l-12.91-7,0.89,0.46,12.91,7-0.89-.46" transform="translate(23.39 -58.25)"/><path class="cls-5" d="M387.22,111.78l-12.91-7c3.32,1.63,7.93,3,14,4.62a62.72,62.72,0,0,1,11.84,4.25l12.91,7a62.72,62.72,0,0,0-11.84-4.25c-6-1.61-10.64-3-14-4.62" transform="translate(23.39 -58.25)"/><path class="cls-7" d="M413,120.65l-12.91-7q0.83,0.41,1.62.84l12.91,7q-0.79-.43-1.62-0.84" transform="translate(23.39 -58.25)"/></g></g></g><g class="cls-2"><g class="cls-27"><g class="cls-2"><path class="cls-6" d="M397.3,66l-12.91-7c10.49-1.47,18.66-.65,24.92,1l12.91,7c-6.26-1.62-14.43-2.45-24.92-1" transform="translate(23.39 -58.25)"/><path class="cls-5" d="M422.22,67l-12.91-7c1.27,0.33,2.45.69,3.57,1.07l12.91,7c-1.11-.38-2.3-0.74-3.57-1.07" transform="translate(23.39 -58.25)"/></g></g></g><g class="cls-2"><g class="cls-28"><g class="cls-2"><path class="cls-12" d="M370.74,134.12l-12.91-7c-9.87-5.37-15.76-13.64-15.74-25.86a38.84,38.84,0,0,1,2.35-13.3l12.91,7a38.84,38.84,0,0,0-2.35,13.3c0,12.22,5.87,20.49,15.74,25.86" transform="translate(23.39 -58.25)"/><path class="cls-11" d="M357.36,95l-12.91-7a39,39,0,0,1,2.27-5.06l12.91,7A39,39,0,0,0,357.36,95" transform="translate(23.39 -58.25)"/><path class="cls-10" d="M359.63,89.9l-12.91-7a40,40,0,0,1,2.49-4l12.91,7a40,40,0,0,0-2.49,4" transform="translate(23.39 -58.25)"/><path class="cls-9" d="M362.12,85.87l-12.91-7a41.31,41.31,0,0,1,2.87-3.63l12.91,7a41.31,41.31,0,0,0-2.87,3.63" transform="translate(23.39 -58.25)"/><path class="cls-8" d="M365,82.23l-12.91-7a43.14,43.14,0,0,1,3.47-3.5l12.91,7a43.14,43.14,0,0,0-3.47,3.5" transform="translate(23.39 -58.25)"/><path class="cls-7" d="M368.46,78.73l-12.91-7a45.72,45.72,0,0,1,4.61-3.63l12.91,7a45.72,45.72,0,0,0-4.61,3.63" transform="translate(23.39 -58.25)"/><path class="cls-5" d="M373.06,75.1l-12.91-7A49.84,49.84,0,0,1,367.28,64l12.91,7a49.84,49.84,0,0,0-7.12,4.08" transform="translate(23.39 -58.25)"/><path class="cls-6" d="M380.18,71l-12.91-7a59.62,59.62,0,0,1,17.12-5l12.91,7a59.62,59.62,0,0,0-17.12,5" transform="translate(23.39 -58.25)"/></g></g></g><path class="cls-16" d="M397.3,66c12.61-1.77,21.88-.22,28.49,2l-5.69,22.79a46.07,46.07,0,0,0-23.34-2.43c-10.94,1.54-16.25,7.62-16.26,13.9,0,7.67,6.29,10.21,20.67,14.05,19.71,5.13,29,14.88,28.92,31.88,0,20.2-14.46,39.55-45.12,43.86-12.75,1.79-25.33-.16-31.63-3l5.2-23.25a55.69,55.69,0,0,0,28,3.55c11.6-1.63,17.75-7.68,17.76-15.54,0-7.48-5.27-11-18.71-14.33C367,135.15,355,125.75,355,108.26,355,87.69,371,69.74,397.3,66Z" transform="translate(23.39 -58.25)"/></g></svg>