<svg id="Layer_1" data-name="Layer 1" xmlns="http://www.w3.org/2000/svg" viewBox="0 0 90.65 45.65"><defs><style>.cls-1{fill:#a5a5a5;stroke:#000;stroke-miterlimit:10;stroke-width:0.65px;}.cls-2{fill:#a09f9f;}.cls-3{font-size:18.68px;fill:#fff;font-family:Myriad Pro;font-weight:700;}</style></defs><title>icon_promo</title><path class="cls-1" d="M353.12,384.68l-14.25-10.83H263.37v45h75.51l14.49-11.26ZM343.63,398a2.21,2.21,0,1,1,2.18-2.21A2.2,2.2,0,0,1,343.63,398Z" transform="translate(-263.05 -373.53)"/><path class="cls-2" d="M343.63,394a1.84,1.84,0,1,1-1.79,1.84,1.81,1.81,0,0,1,1.79-1.84m0-2.58a4.42,4.42,0,1,0,4.37,4.42,4.39,4.39,0,0,0-4.37-4.42h0Z" transform="translate(-263.05 -373.53)"/><text class="cls-3" transform="translate(6.85 27.93) scale(0.99 1)">P<tspan x="10.86" y="0">R</tspan><tspan x="21.86" y="0">OMO</tspan></text></svg>