<svg id="Layer_1" data-name="Layer 1" xmlns="http://www.w3.org/2000/svg" viewBox="0 0 90 30"><defs><style>.cls-1{fill:#fff;}</style></defs><title>icon_vehicle</title><path d="M178,425.48a26.91,26.91,0,0,0-1.45-4.05c-3-5.46-11-6.28-15.58-1.39-12.31.08-24.63,0-36.94,0.07a3.86,3.86,0,0,1-2.82-1,9.14,9.14,0,0,0-9.36-1.81,8.34,8.34,0,0,0-6.07,6.91,1.42,1.42,0,0,1-1.79,1.42c-1.81-.08-3.64,0-5.56,0v-6c2.73-.52,5.18-1.52,6.81-4.24H99.84a6.47,6.47,0,0,1,4.6-2.61c5.68-.86,11.37-1.61,17-2.49,6.86-5.15,14.43-8.28,23.32-7.83,5.23,0.26,10.53.08,15.67,0.82a39.42,39.42,0,0,1,12.07,4.25,18.45,18.45,0,0,0,10.28,2c0.82-.08,1.63,0,2.7,0,0,0.8.05,1.45,0,2.09-0.23,2.33.07,4.34,2.23,6,0.74,0.58.39,2.35,0.62,3.56,0.31,1.61-.46,2.21-2.08,2.49C183.52,424.19,180.79,424.88,178,425.48Zm-11.61-14.12a11.53,11.53,0,0,0-8.89-5.44c-4.44-.42-8.94-0.25-13.41-0.39a30.2,30.2,0,0,0-17.11,4.9c-0.35.22-.66,0.5-1.13,0.86h20.31v-3.85h3.29v3.91h16.94Z" transform="translate(-98.45 -402.41)"/><path d="M159.76,421.84l-0.9,3.68H124.45l-0.85-3.68h36.16Z" transform="translate(-98.45 -402.41)"/><path d="M114.9,432.41a7.06,7.06,0,0,1-7.35-7A7.45,7.45,0,1,1,114.9,432.41Zm4.11-6.7a3.88,3.88,0,0,0-3.8-4,4,4,0,0,0-4.36,3.66,4.08,4.08,0,0,0,3.94,3.93A4,4,0,0,0,119,425.71Z" transform="translate(-98.45 -402.41)"/><path d="M168.41,432.41c-4.21,0-7.4-3-7.41-6.87,0-5.54,6.57-9.43,12.91-5.17C178.38,426.28,174.29,432.41,168.41,432.41Zm4-6.88a3.89,3.89,0,0,0-4-3.79,4,4,0,0,0-4.15,3.67,4.07,4.07,0,0,0,4.12,3.92A4,4,0,0,0,172.44,425.53Z" transform="translate(-98.45 -402.41)"/><path class="cls-1" d="M119,425.71a4,4,0,0,1-4.22,3.62,4.08,4.08,0,0,1-3.94-3.93,4,4,0,0,1,4.36-3.66A3.88,3.88,0,0,1,119,425.71Z" transform="translate(-98.45 -402.41)"/><path class="cls-1" d="M172.44,425.53a4,4,0,0,1-4,3.8,4.07,4.07,0,0,1-4.12-3.92,4,4,0,0,1,4.15-3.67A3.89,3.89,0,0,1,172.44,425.53Z" transform="translate(-98.45 -402.41)"/><path class="cls-1" d="M166.41,411.36H149.47v-3.91h-3.29v3.85H125.87c0.47-.36.78-0.64,1.13-0.86a30.2,30.2,0,0,1,17.11-4.9c4.47,0.14,9,0,13.41.39A11.53,11.53,0,0,1,166.41,411.36Z" transform="translate(-98.45 -402.41)"/></svg>