<svg id="Layer_1" data-name="Layer 1" xmlns="http://www.w3.org/2000/svg" viewBox="0 0 40 40.37"><defs><style>.cls-1,.cls-5{fill:#133355;}.cls-1{stroke:#030303;stroke-miterlimit:10;stroke-width:0.25px;}.cls-2{fill:#e12e28;}.cls-3{fill:#fff;}.cls-4{opacity:0.3;}.cls-6{opacity:0;}</style></defs><title>icon_map_pin_locations</title><path class="cls-1" d="M32.51,12.5C32.51,19.13,20,40,20,40S7.51,19.09,7.51,12.5A12.5,12.5,0,1,1,32.51,12.5Z" transform="translate(0 0.13)"/><ellipse class="cls-2" cx="19.96" cy="12.98" rx="4.06" ry="3.88"/><ellipse class="cls-3" cx="19.96" cy="12.98" rx="1.36" ry="1.3"/><g class="cls-4"><path class="cls-5" d="M39,26.07c-2.33,3.35-19,13.93-19,13.93S19.6,28.33,21.3,26.07C23.68,22.58,29.61,20,34.44,20S41.42,22.72,39,26.07Z" transform="translate(0 0.13)"/><path class="cls-3" d="M30.18,25.22c-0.65,0-.93-0.37-0.62-0.83a2.49,2.49,0,0,1,1.78-.9c0.65,0,.93.37,0.62,0.83A2.49,2.49,0,0,1,30.18,25.22Z" transform="translate(0 0.13)"/></g><g class="cls-6"><path class="cls-5" d="M1,26.07c2.34,3.35,19,13.93,19,13.93s0.45-11.67-1.25-13.93C16.26,22.63,10.38,20,5.51,20S-1.38,22.72,1,26.07Z" transform="translate(0 0.13)"/><path class="cls-3" d="M9.86,26.12c0.65,0,.93-0.37.61-0.83a2.39,2.39,0,0,0-1.74-.82c-0.65,0-.93.37-0.61,0.83A2.39,2.39,0,0,0,9.86,26.12Z" transform="translate(0 0.13)"/></g></svg>