<svg id="Layer_1" data-name="Layer 1" xmlns="http://www.w3.org/2000/svg" viewBox="0 0 50.66 58.37"><defs><style>.cls-1{fill:#003057;}.cls-2{fill:none;stroke:#003057;stroke-miterlimit:10;stroke-width:0.6px;}.cls-3{fill:#fff;}</style></defs><title>icon_layer</title><polygon class="cls-1" points="25.28 39 50.48 20.3 25.28 0 0.18 20.3 25.28 39"/><polyline class="cls-2" points="0.18 26.4 25.28 45 50.48 26.4"/><polyline class="cls-2" points="0.18 32.9 25.28 51.5 50.48 32.9"/><polyline class="cls-2" points="0.18 39.4 25.28 58 50.48 39.4"/><path class="cls-3" d="M36.6,34.8h0.9v6.3h3v0.8H36.6V34.8Z" transform="translate(-24.62 -19.4)"/><path class="cls-3" d="M42.7,39.6L42,41.8H41l2.4-7h1.1l2.4,7h-1l-0.8-2.2H42.7Zm2.3-.7-0.7-2a9.29,9.29,0,0,1-.4-1.3h0a9.29,9.29,0,0,1-.4,1.3l-0.7,2H45Z" transform="translate(-24.62 -19.4)"/><path class="cls-3" d="M48.7,41.8v-3l-2.2-4h1l1,1.9a10.09,10.09,0,0,1,.7,1.5h0c0.2-.5.4-0.9,0.7-1.5l1-1.9h1l-2.4,4v3H48.7Z" transform="translate(-24.62 -19.4)"/><path class="cls-3" d="M56.3,38.5H53.6V41h3v0.8h-4v-7h3.8v0.8H53.5v2.2h2.7v0.7h0.1Z" transform="translate(-24.62 -19.4)"/><path class="cls-3" d="M57.8,34.9a9.15,9.15,0,0,1,1.7-.1,2.65,2.65,0,0,1,2,.6,1.61,1.61,0,0,1,.6,1.3,2,2,0,0,1-1.3,1.8h0a1.71,1.71,0,0,1,1,1.4,10.94,10.94,0,0,0,.5,1.9H61.4a9.42,9.42,0,0,1-.5-1.7,1.43,1.43,0,0,0-1.4-1.4H58.6v3H57.7V34.9h0.1Zm0.9,3.2h0.9a1.33,1.33,0,1,0,0-2.6,2,2,0,0,0-.9.1v2.5Z" transform="translate(-24.62 -19.4)"/></svg>