<svg id="Frame" xmlns="http://www.w3.org/2000/svg" viewBox="0 0 253.57 253.57"><defs><style>.cls-1{opacity:0.1;}.cls-2{fill:#231f20;}</style></defs><title>icon_brand</title><g class="cls-1"><path class="cls-2" d="M1541.85,2007.51h-14.44a5.36,5.36,0,0,0-.9.09,7.11,7.11,0,0,0-4.61,2.72,4.68,4.68,0,0,0-.33.46l-11.91,18.07a4.86,4.86,0,0,0-.52,1,8.8,8.8,0,0,0-.83,3.72,8.93,8.93,0,0,0,.75,3.55,4.88,4.88,0,0,0,.45.91l6.51,9.85a7.2,7.2,0,0,0,6.15,3.59,7.09,7.09,0,0,0,5.45-2.59,5.71,5.71,0,0,0,.51-0.63l19.61-28.81a1.66,1.66,0,0,1,.09-0.15,7.69,7.69,0,0,0,1.25-4.23A7.41,7.41,0,0,0,1541.85,2007.51Z" transform="translate(-1359.5 -1931.91)"/><path class="cls-2" d="M1511.48,2062.05l0.07-.12,0.25-.43a5.53,5.53,0,0,0,.44-0.89,8.81,8.81,0,0,0,0-7.26,5.56,5.56,0,0,0-.42-0.87l-24.83-41.56,0-.06a4.69,4.69,0,0,0-.44-0.64,7.13,7.13,0,0,0-4.6-2.71,4.37,4.37,0,0,0-.91-0.09h-11.44a7.41,7.41,0,0,0-7.24,7.57,7.7,7.7,0,0,0,1.25,4.23h0l23.36,37.91-24.07,39.06v0a7.72,7.72,0,0,0-1.24,4.21,7.42,7.42,0,0,0,7.24,7.56h11.46a5.67,5.67,0,0,0,1-.11,7.13,7.13,0,0,0,4.63-2.9c0.11-.15.22-0.3,0.31-0.47l0,0,24.84-41.56A4.3,4.3,0,0,0,1511.48,2062.05Z" transform="translate(-1359.5 -1931.91)"/><path class="cls-2" d="M1443.63,2043.91h-13.38a4.72,4.72,0,0,0-1.14.14,7.34,7.34,0,0,0-5.75,7.24v49.13a5.14,5.14,0,0,0,.23,1.56,7.22,7.22,0,0,0,5.51,5.4,4.33,4.33,0,0,0,1.15.14h13.38a7.11,7.11,0,0,0,6.76-5.26,5.14,5.14,0,0,0,.33-1.83v-49.13a5.19,5.19,0,0,0-.06-0.8A7.2,7.2,0,0,0,1443.63,2043.91Z" transform="translate(-1359.5 -1931.91)"/><path class="cls-2" d="M1443.64,2007.63h-13.38a4.6,4.6,0,0,0-1.12.14,7.34,7.34,0,0,0-5.76,7.24v13.8a5.17,5.17,0,0,0,.23,1.55,7.23,7.23,0,0,0,5.51,5.4,4.82,4.82,0,0,0,1.15.14h13.38a7.11,7.11,0,0,0,6.76-5.26,5.21,5.21,0,0,0,.33-1.84V2015a5.24,5.24,0,0,0-.06-0.8A7.21,7.21,0,0,0,1443.64,2007.63Z" transform="translate(-1359.5 -1931.91)"/><path class="cls-2" d="M1540.76,2108h-14.43a4.53,4.53,0,0,1-.9-0.08,7.13,7.13,0,0,1-4.61-2.72,4.65,4.65,0,0,1-.33-0.45l-11.91-18.07a4.76,4.76,0,0,1-.52-1,8.77,8.77,0,0,1-.07-7.27,5.15,5.15,0,0,1,.44-0.92l6.51-9.86a7.22,7.22,0,0,1,6.15-3.59,7.12,7.12,0,0,1,5.45,2.6,4.1,4.1,0,0,1,.5.64l19.61,28.81,0.1,0.14a7.76,7.76,0,0,1,1.24,4.24A7.41,7.41,0,0,1,1540.76,2108Z" transform="translate(-1359.5 -1931.91)"/><path class="cls-2" d="M1486.29,1931.91a126.79,126.79,0,1,0,126.79,126.78A126.93,126.93,0,0,0,1486.29,1931.91Zm0,227.66a100.88,100.88,0,1,1,100.88-100.88A101,101,0,0,1,1486.29,2159.57Z" transform="translate(-1359.5 -1931.91)"/></g></svg>