<svg id="Layer_1" data-name="Layer 1" xmlns="http://www.w3.org/2000/svg" viewBox="0 0 50.66 58.37"><defs><style>.cls-1{fill:#e1251b;}.cls-2{fill:none;stroke:#e1251b;stroke-miterlimit:10;stroke-width:0.6px;}.cls-3{fill:#fff;}</style></defs><title>icon_filter</title><polygon class="cls-1" points="25.28 39 50.48 20.3 25.28 0 0.18 20.3 25.28 39"/><polyline class="cls-2" points="0.18 26.4 25.28 45 50.48 26.4"/><polyline class="cls-2" points="0.18 32.9 25.28 51.5 50.48 32.9"/><polyline class="cls-2" points="0.18 39.4 25.28 58 50.48 39.4"/><path class="cls-3" d="M36.6,104.1h3.8v0.8H37.5v2.3h2.7V108H37.5v3.2H36.6v-7.1Z" transform="translate(-24.62 -88.4)"/><path class="cls-3" d="M42.6,104.1v7H41.7v-7h0.9Z" transform="translate(-24.62 -88.4)"/><path class="cls-3" d="M44.2,104.1h0.9v6.3h3v0.8H44.2v-7.1Z" transform="translate(-24.62 -88.4)"/><path class="cls-3" d="M49.6,104.9H47.5v-0.8h5.2v0.8H50.6v6.3H49.7v-6.3H49.6Z" transform="translate(-24.62 -88.4)"/><path class="cls-3" d="M57,107.8H54.3v2.5h3v0.8h-4v-7h3.8v0.8H54.2v2.2H57v0.7Z" transform="translate(-24.62 -88.4)"/><path class="cls-3" d="M58.5,104.2a9.15,9.15,0,0,1,1.7-.1,2.65,2.65,0,0,1,2,.6,1.61,1.61,0,0,1,.6,1.3,2,2,0,0,1-1.3,1.8h0a1.71,1.71,0,0,1,1,1.4,10.94,10.94,0,0,0,.5,1.9H62.1a9.42,9.42,0,0,1-.5-1.7,1.43,1.43,0,0,0-1.4-1.4H59.3v3H58.4v-6.8h0.1Zm0.9,3.2h0.9a1.33,1.33,0,1,0,0-2.6,2,2,0,0,0-.9.1v2.5Z" transform="translate(-24.62 -88.4)"/></svg>