<svg id="Layer_1" data-name="Layer 1" xmlns="http://www.w3.org/2000/svg" viewBox="0 0 138.18 138.18"><defs><style>.cls-1{fill:#003767;}.cls-2{fill:#ee3124;}</style></defs><title>logo</title><path class="cls-1" d="M160.53,97.61h-7.87a2.53,2.53,0,0,0-.49,0,3.87,3.87,0,0,0-2.51,1.48l-0.18.25L143,109.23a2.66,2.66,0,0,0-.28.56,4.8,4.8,0,0,0,0,4,2.47,2.47,0,0,0,.24.5l3.55,5.37a3.93,3.93,0,0,0,3.36,2,3.88,3.88,0,0,0,3-1.41,2.94,2.94,0,0,0,.27-0.35l10.69-15.7,0.05-.08a4.22,4.22,0,0,0,.68-2.31A4,4,0,0,0,160.53,97.61Z" transform="translate(-61.16 -56.41)"/><path class="cls-2" d="M144,127.33l0-.07,0.14-.23a2.58,2.58,0,0,0,.24-0.48,4.77,4.77,0,0,0,0-4,2.75,2.75,0,0,0-.23-0.48L130.6,99.46l0,0a3,3,0,0,0-.24-0.35,3.85,3.85,0,0,0-2.5-1.48,2.51,2.51,0,0,0-.5-0.05h-6.23a4,4,0,0,0-3.95,4.12,4.19,4.19,0,0,0,.68,2.3h0l12.73,20.66-13.12,21.29h0a4.2,4.2,0,0,0-.68,2.3,4,4,0,0,0,3.94,4.12H127a3.07,3.07,0,0,0,.55-0.06,3.88,3.88,0,0,0,2.53-1.58l0.17-.26v0l13.54-22.65A2.7,2.7,0,0,0,144,127.33Z" transform="translate(-61.16 -56.41)"/><path class="cls-1" d="M107,117.45H99.71a2.5,2.5,0,0,0-.62.08A4,4,0,0,0,96,121.47v26.77a2.94,2.94,0,0,0,.13.85,3.94,3.94,0,0,0,3,2.94,2.57,2.57,0,0,0,.63.08H107a3.87,3.87,0,0,0,3.68-2.87,2.85,2.85,0,0,0,.18-1V121.47a2.59,2.59,0,0,0,0-.43A3.92,3.92,0,0,0,107,117.45Z" transform="translate(-61.16 -56.41)"/><path class="cls-1" d="M107,97.67H99.71a2.73,2.73,0,0,0-.61.07A4,4,0,0,0,96,101.69v7.52a2.92,2.92,0,0,0,.13.85,3.94,3.94,0,0,0,3,2.94,2.67,2.67,0,0,0,.63.08H107a3.87,3.87,0,0,0,3.68-2.87,2.83,2.83,0,0,0,.18-1v-7.52a2.59,2.59,0,0,0,0-.43A3.92,3.92,0,0,0,107,97.67Z" transform="translate(-61.16 -56.41)"/><path class="cls-1" d="M159.93,152.35h-7.87a2.51,2.51,0,0,1-.48,0,3.87,3.87,0,0,1-2.51-1.48l-0.18-.25-6.49-9.85a2.94,2.94,0,0,1-.28-0.56,4.81,4.81,0,0,1,0-4,2.5,2.5,0,0,1,.24-0.5l3.55-5.37a3.93,3.93,0,0,1,3.35-2,3.87,3.87,0,0,1,3,1.41,2.7,2.7,0,0,1,.27.35l10.69,15.69,0.05,0.08a4.21,4.21,0,0,1,.68,2.3A4,4,0,0,1,159.93,152.35Z" transform="translate(-61.16 -56.41)"/><path class="cls-2" d="M130.25,56.41a69.09,69.09,0,1,0,69.09,69.09A69.17,69.17,0,0,0,130.25,56.41Zm0,124.06a55,55,0,1,1,55-55A55,55,0,0,1,130.25,180.47Z" transform="translate(-61.16 -56.41)"/></svg>