<svg id="Layer_1" data-name="Layer 1" xmlns="http://www.w3.org/2000/svg" viewBox="0 0 50 20"><defs><style>.cls-1{fill:#020202;}.cls-2{fill:#fff;}</style></defs><title>tooltip_vehicle_pin</title><path class="cls-1" d="M44.2,15.38a21.18,21.18,0,0,0-.8-2.71,4.94,4.94,0,0,0-7-2.42,5.36,5.36,0,0,0-1.63,1.5H14.26a1.93,1.93,0,0,1-1.56-.64A4.46,4.46,0,0,0,7.5,9.89,5.34,5.34,0,0,0,4.09,14.5a0.87,0.87,0,0,1-.74,1,0.73,0.73,0,0,1-.25,0H0v-4A5.11,5.11,0,0,0,3.78,8.68h-3A3.5,3.5,0,0,1,3.34,6.94c3.15-.58,6.32-1.11,9.46-1.66,3.81-3.45,8-5.57,13-5.24a77.6,77.6,0,0,1,8.7.54,19.63,19.63,0,0,1,6.71,2.83,8.81,8.81,0,0,0,5.66,1.34,12.9,12.9,0,0,1,1.5,0V6.15a4.5,4.5,0,0,0,1.24,4c0.41,0.39.22,1.56,0.35,2.36a1.23,1.23,0,0,1-1.16,1.65C47.26,14.5,45.77,15,44.2,15.38ZM37.77,6a6.36,6.36,0,0,0-5-3.62c-2.47-.28-5-0.16-7.44-0.25a14.8,14.8,0,0,0-9.5,3.26,8.35,8.35,0,0,0-.62.58H26.5V3.36h1.83V6h9.43Z" transform="translate(0 0)"/><path class="cls-1" d="M34.05,13l-0.5,2.45H14.44L14,13H34.05Z" transform="translate(0 0)"/><path class="cls-1" d="M9.14,20a4.3,4.3,0,0,1-4.08-4.5V15.38a4.39,4.39,0,0,1,4.09-4.59H9.21a4.4,4.4,0,0,1,4.11,4.65A4.4,4.4,0,0,1,9.14,20Zm2.29-4.44a2.43,2.43,0,0,0-2.11-2.64A2.42,2.42,0,0,0,6.9,15.34v0h0A2.53,2.53,0,0,0,9.09,18a2.41,2.41,0,0,0,2.33-2.44h0Z" transform="translate(0 0)"/><path class="cls-1" d="M38.86,20a4.21,4.21,0,0,1-4.09-4.34V15.43c0-3.69,3.65-6.29,7.17-3.44C44.4,15.87,42.13,20,38.86,20Zm2.24-4.59a2.38,2.38,0,0,0-2.21-2.5h0a2.4,2.4,0,0,0-2.31,2.44A2.5,2.5,0,0,0,38.87,18a2.45,2.45,0,0,0,2.25-2.53h0Z" transform="translate(0 0)"/><path class="cls-2" d="M11.42,15.54a2.4,2.4,0,0,1-2.34,2.41,2.52,2.52,0,0,1-2.19-2.62,2.42,2.42,0,0,1,2.39-2.44h0A2.43,2.43,0,0,1,11.42,15.54Z" transform="translate(0 0)"/><path class="cls-2" d="M41.1,15.42A2.45,2.45,0,0,1,38.86,18a2.5,2.5,0,0,1-2.29-2.61,2.27,2.27,0,1,1,4.53.06h0Z" transform="translate(0 0)"/><path class="cls-2" d="M37.77,6H28.35V3.36H26.5V5.92H15.23c0.26-.24.43-0.43,0.62-0.58a14.79,14.79,0,0,1,9.5-3.26c2.5,0.09,5,0,7.44.25A6.36,6.36,0,0,1,37.77,6Z" transform="translate(0 0)"/></svg>