<svg id="Layer_1" data-name="Layer 1" xmlns="http://www.w3.org/2000/svg" xmlns:xlink="http://www.w3.org/1999/xlink" viewBox="0 0 240 340"><defs><style>.cls-1{stroke:#000;stroke-miterlimit:10;stroke-width:0.25px;opacity:0.9;fill:url(#linear-gradient);}.cls-2{fill:#231f20;opacity:0.12;}</style><linearGradient id="linear-gradient" x1="272.85" y1="493.83" x2="81.02" y2="71" gradientUnits="userSpaceOnUse"><stop offset="0" stop-color="#d7d7d7"/><stop offset="1" stop-color="#003056"/></linearGradient></defs><title>Untitled-6</title><path class="cls-1" d="M226.77,313.85H131.48L120,340l-12.47-26.15H13.23A13,13,0,0,1,0,301V12.81A13,13,0,0,1,13.23,0H226.77A13,13,0,0,1,240,12.81V301A13,13,0,0,1,226.77,313.85Z"/><path class="cls-2" d="M229.28,247.63h-8.65a3.32,3.32,0,0,0-.54.05,4.29,4.29,0,0,0-2.76,1.58,2.72,2.72,0,0,0-.2.26L210,260a2.78,2.78,0,0,0-.31.59,5,5,0,0,0-.49,2.16,5,5,0,0,0,.45,2.06,2.79,2.79,0,0,0,.27.53l3.9,5.71a4.29,4.29,0,0,0,6.95.58,3.33,3.33,0,0,0,.3-0.37l11.75-16.7,0.06-.09A4.39,4.39,0,0,0,229.28,247.63Z"/><path class="cls-2" d="M211.09,279.26l0-.07,0.15-.25a3.16,3.16,0,0,0,.26-0.51,5,5,0,0,0,0-4.21,3.18,3.18,0,0,0-.25-0.51l-14.88-24.1,0,0a2.72,2.72,0,0,0-.27-0.37,4.3,4.3,0,0,0-2.76-1.57,2.7,2.7,0,0,0-.54-0.05h-6.85a4.39,4.39,0,0,0-3.59,6.84h0l14,22-14.42,22.65h0a4.39,4.39,0,0,0,3.59,6.83h6.86a3.5,3.5,0,0,0,.6-0.06,4.29,4.29,0,0,0,2.78-1.68c0.06-.09.13-0.18,0.19-0.27l0,0,14.88-24.1A2.46,2.46,0,0,0,211.09,279.26Z"/><path class="cls-2" d="M170.44,268.74h-8a2.92,2.92,0,0,0-.68.08,4.29,4.29,0,0,0-3.44,4.2v28.49a2.89,2.89,0,0,0,.14.9,4.26,4.26,0,0,0,3.3,3.13,2.67,2.67,0,0,0,.69.08h8a4.24,4.24,0,0,0,4-3.05,2.9,2.9,0,0,0,.2-1.06V273a2.91,2.91,0,0,0,0-.46A4.26,4.26,0,0,0,170.44,268.74Z"/><path class="cls-2" d="M170.44,247.7h-8a2.84,2.84,0,0,0-.67.08,4.29,4.29,0,0,0-3.45,4.2v8a2.91,2.91,0,0,0,.14.9,4.27,4.27,0,0,0,3.3,3.13,3,3,0,0,0,.69.08h8a4.24,4.24,0,0,0,4-3,2.94,2.94,0,0,0,.2-1.07v-8a2.94,2.94,0,0,0,0-.47A4.26,4.26,0,0,0,170.44,247.7Z"/><path class="cls-2" d="M228.62,305.87H220a2.8,2.8,0,0,1-.54,0,4.3,4.3,0,0,1-2.76-1.58,2.7,2.7,0,0,1-.2-0.26l-7.13-10.48a2.73,2.73,0,0,1-.31-0.59,4.94,4.94,0,0,1,0-4.21,2.94,2.94,0,0,1,.26-0.53l3.9-5.71a4.29,4.29,0,0,1,6.95-.57,2.39,2.39,0,0,1,.3.37L232.15,299l0.06,0.08A4.39,4.39,0,0,1,228.62,305.87Z"/><path class="cls-2" d="M135.56,277.31c0-32.25,27.11-58.49,60.44-58.49a61.2,61.2,0,0,1,44,18.47V217.45a77.22,77.22,0,0,0-44-13.65c-41.88,0-76,33-76,73.51a71.31,71.31,0,0,0,10.87,37.85l0.57-1.3h17.37A57,57,0,0,1,135.56,277.31Z"/></svg>