<svg id="Layer_1" data-name="Layer 1" xmlns="http://www.w3.org/2000/svg" viewBox="0 0 50.25 40.72"><defs><style>.cls-1{fill:#7c7c7c;stroke:#000;stroke-miterlimit:10;stroke-width:0.25px;}.cls-2{fill:#a09f9f;}.cls-3{fill:#fff;}</style></defs><title>tooltip_promo_pin</title><path class="cls-1" d="M49.9,5.7L41.9,0H0V23.5H10.3L5.9,40,18.2,23.5H42l8-5.9Zm-5.3,7a1.15,1.15,0,0,1,.1-2.3,1.11,1.11,0,0,1,1.1,1.1,1.49,1.49,0,0,1-1.2,1.2h0Z" transform="translate(0.13 0.13)"/><path class="cls-2" d="M44.6,9.4a2.06,2.06,0,1,1-.3,4.1,2.08,2.08,0,0,1-1.9-2.1,2.12,2.12,0,0,1,2.2-2h0m0-.3a2.3,2.3,0,1,0,.2,4.6A2.38,2.38,0,0,0,47,11.4a2.35,2.35,0,0,0-2.4-2.3h0Z" transform="translate(0.13 0.13)"/><path class="cls-3" d="M4.3,7.9a14.77,14.77,0,0,1,2.1-.1,3.14,3.14,0,0,1,2.1.5,1.9,1.9,0,0,1,.8,1.5,2.27,2.27,0,0,1-.6,1.6,3.41,3.41,0,0,1-2.2.7H6v2.4H4.3V7.9h0Zm1.5,3H6.3A1.18,1.18,0,0,0,7.7,10V9.9a0.94,0.94,0,0,0-1-1H6.5a1.27,1.27,0,0,0-.6.1L5.8,10.9h0Z" transform="translate(0.13 0.13)"/><path class="cls-3" d="M10.3,7.9a14.77,14.77,0,0,1,2.1-.1,3.29,3.29,0,0,1,2.2.5,1.45,1.45,0,0,1,.6,1.4A1.71,1.71,0,0,1,14,11.3h0a1.59,1.59,0,0,1,.9,1.2c0.2,0.6.3,1.2,0.6,1.9H13.9a8.8,8.8,0,0,1-.5-1.5,1.09,1.09,0,0,0-.9-1.1H11.8v2.6H10.3V7.9h0Zm1.5,2.8h0.6a1,1,0,0,0,1.2-.7V9.8a0.9,0.9,0,0,0-1.1-.9H11.7v1.8h0.1Z" transform="translate(0.13 0.13)"/><path class="cls-3" d="M22.7,11a3.31,3.31,0,0,1-2.9,3.5H19.3a3.2,3.2,0,0,1-3.3-3V11.2a3.25,3.25,0,0,1,3.1-3.4h0.3a3.14,3.14,0,0,1,3.3,3V11Zm-5,.1c0,1.3.6,2.2,1.7,2.2a2,2,0,0,0,1.7-2.2c0-1.2-.6-2.2-1.7-2.2S17.7,9.9,17.7,11.1Z" transform="translate(0.13 0.13)"/><path class="cls-3" d="M29.5,11.9c0-.8-0.1-1.8-0.1-2.7h0a18.24,18.24,0,0,1-.7,2.5l-0.8,2.6H26.7L26,11.8a19.8,19.8,0,0,1-.6-2.6h0c0,0.9-.1,1.9-0.1,2.7L25,14.4H23.6L24,7.8h2.1L26.8,10l0.6,2.4h0a21.72,21.72,0,0,1,.7-2.4l0.7-2.2h2l0.4,6.6H29.7Z" transform="translate(0.13 0.13)"/><path class="cls-3" d="M38.7,11a3.31,3.31,0,0,1-2.9,3.5H35.3a3.2,3.2,0,0,1-3.3-3V11.2a3.25,3.25,0,0,1,3.1-3.4h0.3a3.2,3.2,0,0,1,3.3,3V11Zm-5,.1c0,1.3.6,2.2,1.7,2.2a2,2,0,0,0,1.7-2.2c0-1.2-.6-2.2-1.7-2.2S33.7,9.9,33.7,11.1Z" transform="translate(0.13 0.13)"/></svg>