<svg id="Layer_1" data-name="Layer 1" xmlns="http://www.w3.org/2000/svg" viewBox="0 0 150.5 30"><defs><style>.cls-1{fill:#fff;}.cls-2{fill:#123559;}.cls-3{fill:#d42e27;}</style></defs><title>TechSolutionIcon</title><path class="cls-1" d="M8.44,0h134a8.1,8.1,0,0,1,8.1,8.1V21.9a8.1,8.1,0,0,1-8.1,8.1H8.28A8.28,8.28,0,0,1,0,21.72V8.44A8.44,8.44,0,0,1,8.44,0Z"/><path class="cls-1" d="M40.33,43.33a8.62,8.62,0,1,1,8.62-8.62A8.63,8.63,0,0,1,40.33,43.33Z" transform="translate(-20.76 -19.71)"/><path class="cls-2" d="M45.08,30.34H43.77a0.61,0.61,0,0,0-.39.23l0,0-1,1.54,0,0.09a0.75,0.75,0,0,0-.07.32,0.76,0.76,0,0,0,.06.3l0,0.08,0.56,0.84a0.62,0.62,0,0,0,.53.31,0.61,0.61,0,0,0,.47-0.22l0-.05,1.68-2.46h0A0.66,0.66,0,0,0,45.7,31,0.63,0.63,0,0,0,45.08,30.34Z" transform="translate(-20.76 -19.71)"/><path class="cls-3" d="M42.48,35h0l0,0,0-.08a0.75,0.75,0,0,0,0-.62l0-.07-2.12-3.55h0l0-.06A0.61,0.61,0,0,0,40,30.34H38.9a0.63,0.63,0,0,0-.62.65,0.66,0.66,0,0,0,.11.36h0l2,3.24-2.06,3.34h0a0.66,0.66,0,0,0-.11.36,0.63,0.63,0,0,0,.62.65H39.9a0.61,0.61,0,0,0,.4-0.25l0,0h0l2.12-3.55Z" transform="translate(-20.76 -19.71)"/><path class="cls-2" d="M36.69,33.45H35.45a0.63,0.63,0,0,0-.49.62v4.2a0.44,0.44,0,0,0,0,.13,0.62,0.62,0,0,0,.47.46h1.24a0.61,0.61,0,0,0,.58-0.45,0.44,0.44,0,0,0,0-.16v-4.2a0.44,0.44,0,0,0,0-.07A0.62,0.62,0,0,0,36.69,33.45Z" transform="translate(-20.76 -19.71)"/><path class="cls-2" d="M36.69,30.35H35.45A0.63,0.63,0,0,0,35,31v1.18a0.44,0.44,0,0,0,0,.13,0.62,0.62,0,0,0,.47.46h1.24a0.61,0.61,0,0,0,.58-0.45,0.45,0.45,0,0,0,0-.16V31a0.45,0.45,0,0,0,0-.07A0.62,0.62,0,0,0,36.69,30.35Z" transform="translate(-20.76 -19.71)"/><path class="cls-2" d="M45,38.92H43.67a0.61,0.61,0,0,1-.39-0.23l0,0-1-1.54,0-.09a0.75,0.75,0,0,1,0-.62l0-.08,0.56-.84a0.62,0.62,0,0,1,.53-0.31,0.61,0.61,0,0,1,.47.22l0,0.05,1.68,2.46h0a0.66,0.66,0,0,1,.11.36A0.63,0.63,0,0,1,45,38.92Z" transform="translate(-20.76 -19.71)"/><path class="cls-3" d="M40.33,23.88A10.83,10.83,0,1,0,51.16,34.71,10.85,10.85,0,0,0,40.33,23.88Zm0,19.45a8.62,8.62,0,1,1,8.62-8.62A8.63,8.63,0,0,1,40.33,43.33Z" transform="translate(-20.76 -19.71)"/><path class="cls-2" d="M87.33,32.86a3,3,0,1,0,3.06,3A3,3,0,0,0,87.33,32.86Zm0,5.13a2.08,2.08,0,1,1,2.07-2.08A2,2,0,0,1,87.33,38Z" transform="translate(-20.76 -19.71)"/><path class="cls-2" d="M125.71,32.9a3,3,0,1,0,3.06,3A3,3,0,0,0,125.71,32.9Zm0,5.13a2.08,2.08,0,1,1,2.07-2.08A2,2,0,0,1,125.71,38Z" transform="translate(-20.76 -19.71)"/><path class="cls-2" d="M96.65,33a3,3,0,1,0,3.06,3A3,3,0,0,0,96.65,33Zm0,5.13a2.08,2.08,0,1,1,2.07-2.08A2,2,0,0,1,96.65,38.14Z" transform="translate(-20.76 -19.71)"/><path class="cls-2" d="M147.34,32.9a3,3,0,1,0,3.06,3A3,3,0,0,0,147.34,32.9Zm0,5.13a2.08,2.08,0,1,1,2.07-2.08A2,2,0,0,1,147.34,38Z" transform="translate(-20.76 -19.71)"/><path class="cls-2" d="M57,32.78H56V31.11a0.36,0.36,0,0,0-.36-0.36H55.41a0.36,0.36,0,0,0-.36.36v1.67H54.28a0.36,0.36,0,0,0-.36.36v0.25a0.36,0.36,0,0,0,.36.36h0.77v4.52a0.36,0.36,0,0,0,.36.36h0.27A0.36,0.36,0,0,0,56,38.27V33.75h1a0.36,0.36,0,0,0,.36-0.36V33.14A0.36,0.36,0,0,0,57,32.78Z" transform="translate(-20.76 -19.71)"/><path class="cls-2" d="M141.08,32.82h-1V31.15a0.36,0.36,0,0,0-.36-0.36h-0.27a0.36,0.36,0,0,0-.36.36v1.67h-0.77a0.36,0.36,0,0,0-.36.36v0.25a0.36,0.36,0,0,0,.36.36h0.77v4.52a0.36,0.36,0,0,0,.36.36h0.27a0.36,0.36,0,0,0,.36-0.36V33.79h1a0.36,0.36,0,0,0,.36-0.36V33.18A0.36,0.36,0,0,0,141.08,32.82Z" transform="translate(-20.76 -19.71)"/><path class="cls-2" d="M60.33,32.86a3,3,0,0,0-3.07,3.06,3,3,0,0,0,3.06,3h0a3,3,0,0,0,2.83-1.82,0.36,0.36,0,0,0-.33-0.5h-0.3a0.36,0.36,0,0,0-.32.21A2,2,0,0,1,60.33,38a2.06,2.06,0,0,1-2-1.69H63A0.36,0.36,0,0,0,63.37,36V35.81a0.38,0.38,0,0,0,0,0A3,3,0,0,0,60.33,32.86Zm-2,2.47a2.06,2.06,0,0,1,2-1.5,2.1,2.1,0,0,1,2,1.5h-4Z" transform="translate(-20.76 -19.71)"/><path class="cls-2" d="M119.67,35.44l-0.17,0c-0.92-.21-1.36-0.37-1.35-0.87,0-.68,1-0.71,1.2-0.71h0a1.17,1.17,0,0,1,1.19.65,0.28,0.28,0,0,0,.26.19h0.42a0.28,0.28,0,0,0,.28-0.28,0.29,0.29,0,0,0,0-.11,2,2,0,0,0-2.12-1.35h-0.07c-1.33,0-2.13.6-2.14,1.6,0,1.36,1.2,1.63,2,1.81l0.14,0c1,0.22,1.43.37,1.42,0.93s-0.85.81-1.35,0.81h-0.05a1.36,1.36,0,0,1-1.35-.85,0.28,0.28,0,0,0-.26-0.19h-0.42a0.29,0.29,0,0,0-.23.11,0.29,0.29,0,0,0-.05.25,2.22,2.22,0,0,0,2.3,1.59h0.07c1.42,0,2.28-.63,2.3-1.7C121.75,35.86,120.49,35.61,119.67,35.44Z" transform="translate(-20.76 -19.71)"/><path class="cls-2" d="M160.47,35.44l-0.17,0c-0.92-.21-1.36-0.37-1.35-0.87,0-.68,1-0.71,1.2-0.71h0a1.17,1.17,0,0,1,1.19.65,0.28,0.28,0,0,0,.26.19h0.42a0.28,0.28,0,0,0,.28-0.28,0.29,0.29,0,0,0,0-.11,2,2,0,0,0-2.12-1.35h-0.07c-1.33,0-2.13.6-2.14,1.6,0,1.36,1.2,1.63,2,1.81l0.14,0c1,0.22,1.43.37,1.42,0.93s-0.85.81-1.35,0.81h-0.05a1.36,1.36,0,0,1-1.35-.85,0.28,0.28,0,0,0-.26-0.19h-0.42a0.29,0.29,0,0,0-.23.11,0.29,0.29,0,0,0-.05.25,2.22,2.22,0,0,0,2.3,1.59h0.07c1.42,0,2.28-.63,2.3-1.7C162.55,35.86,161.29,35.61,160.47,35.44Z" transform="translate(-20.76 -19.71)"/><path class="cls-2" d="M69.72,34.8h0Z" transform="translate(-20.76 -19.71)"/><path class="cls-2" d="M70,37.41v0h0v0Z" transform="translate(-20.76 -19.71)"/><path class="cls-2" d="M69.93,37.14A0.36,0.36,0,0,0,69.64,37H69.33l-0.1,0h0l-0.08,0h0L69,37.13h0a2.13,2.13,0,0,1-3.85-1.25,2.15,2.15,0,0,1,.6-1.51,2,2,0,0,1,1.52-.61,2.08,2.08,0,0,1,1.36.48h0a1.51,1.51,0,0,1,.3.34,0.36,0.36,0,0,0,.35.19H69.7A0.3,0.3,0,0,0,70,34.47a1,1,0,0,0-.08-0.18h0A3.05,3.05,0,1,0,70,37.43h0v0A0.36,0.36,0,0,0,69.93,37.14Z" transform="translate(-20.76 -19.71)"/><path class="cls-2" d="M75.82,33.23a2.87,2.87,0,0,0-1.87-.6,3,3,0,0,0-1.73.54V31.05a0.34,0.34,0,0,0-.34-0.34H71.61a0.34,0.34,0,0,0-.34.34v7.23a0.34,0.34,0,0,0,.34.34h0.27a0.34,0.34,0,0,0,.34-0.34v-3A1.59,1.59,0,0,1,74,33.57a1.71,1.71,0,0,1,1.24.4,2,2,0,0,1,.52,1.57v2.74a0.34,0.34,0,0,0,.34.34h0.27a0.34,0.34,0,0,0,.34-0.34V35.55A2.88,2.88,0,0,0,75.82,33.23Z" transform="translate(-20.76 -19.71)"/><path class="cls-2" d="M82.33,33.49a2.19,2.19,0,0,0-.39-0.26,2.58,2.58,0,0,0-1.37-.39A2.58,2.58,0,0,0,78,35.33s0,0.06,0,.09,0,0.06,0,.08v2.78a0.35,0.35,0,0,0,.35.35h0.25a0.35,0.35,0,0,0,.35-0.35V35.46a1.47,1.47,0,0,1,1.63-1.6,1.61,1.61,0,0,1,1.15.37,1.9,1.9,0,0,1,.48,1.46v2.58a0.35,0.35,0,0,0,.35.35h0.26a0.35,0.35,0,0,0,.35-0.35V35.69A2.75,2.75,0,0,0,82.33,33.49Z" transform="translate(-20.76 -19.71)"/><path class="cls-2" d="M155.92,33.53a2.19,2.19,0,0,0-.39-0.26,2.58,2.58,0,0,0-1.37-.39,2.58,2.58,0,0,0-2.58,2.49s0,0.06,0,.09,0,0.06,0,.08v2.78a0.35,0.35,0,0,0,.35.35h0.25a0.35,0.35,0,0,0,.35-0.35V35.51a1.47,1.47,0,0,1,1.63-1.6,1.61,1.61,0,0,1,1.15.37,1.9,1.9,0,0,1,.48,1.46v2.58a0.35,0.35,0,0,0,.35.35h0.26a0.35,0.35,0,0,0,.35-0.35V35.74A2.75,2.75,0,0,0,155.92,33.53Z" transform="translate(-20.76 -19.71)"/><rect class="cls-2" x="70.78" y="11.39" width="0.95" height="7.53" rx="0.35" ry="0.35"/><rect class="cls-2" x="109.19" y="11.43" width="0.95" height="7.53" rx="0.35" ry="0.35"/><path class="cls-2" d="M112.26,32.83a0.36,0.36,0,0,0-.29-0.15h-0.3a0.36,0.36,0,0,0-.34.23l-1,2.8-0.38,1h0l-1.39-3.8a0.36,0.36,0,0,0-.34-0.23h-0.3a0.36,0.36,0,0,0-.34.48l1.84,5-0.75,2a0.41,0.41,0,0,0,.21.54l0.22,0.08a0.41,0.41,0,0,0,.51-0.27l0.81-2.17,0-.05L110.88,37l0.44-1.17a0.45,0.45,0,0,0,0,0l1-2.66A0.36,0.36,0,0,0,112.26,32.83Z" transform="translate(-20.76 -19.71)"/><path class="cls-2" d="M106.39,36a1,1,0,0,0,0-.11,1,1,0,0,0,0-.12,2.87,2.87,0,0,0-1.61-2.47,2.83,2.83,0,0,0-1.27-.3,3,3,0,0,0-.91.15,2.92,2.92,0,0,0,.9,5.7,3,3,0,0,0,1.94-.7v0.76c-0.11,1-1,1.44-2.16,1.44a2.06,2.06,0,0,1-1.9-1.17,0.63,0.63,0,0,0-.58.6c0,0.58.74,1.56,2.53,1.56s3.14-1.15,3.06-2.67C106.4,38.66,106.39,36,106.39,36Zm-2.89,1.91a2,2,0,0,1-1.42-.57,2,2,0,1,1,3.38-1.4A1.93,1.93,0,0,1,103.5,37.92Z" transform="translate(-20.76 -19.71)"/><rect class="cls-2" x="121.2" y="13.12" width="1.14" height="5.83" rx="0.44" ry="0.44"/><rect class="cls-2" x="121.2" y="11.11" width="1.14" height="1.61" rx="0.44" ry="0.44"/><path class="cls-2" d="M136.52,38.34a2.19,2.19,0,0,1-.39.26,2.58,2.58,0,0,1-1.37.39,2.58,2.58,0,0,1-2.58-2.49s0-.06,0-0.09,0-.06,0-0.08V33.55a0.35,0.35,0,0,1,.35-0.35h0.25a0.35,0.35,0,0,1,.35.35v2.81a1.47,1.47,0,0,0,1.63,1.6,1.61,1.61,0,0,0,1.15-.37,1.9,1.9,0,0,0,.48-1.46V33.55a0.35,0.35,0,0,1,.35-0.35H137a0.35,0.35,0,0,1,.35.35v2.58A2.75,2.75,0,0,1,136.52,38.34Z" transform="translate(-20.76 -19.71)"/></svg>