<svg id="Search" xmlns="http://www.w3.org/2000/svg" viewBox="0 0 363.27 327.88"><defs><style>.cls-1{fill:#fff;}.cls-2{fill:#003056;}.cls-3{fill:#e2231a;}</style></defs><title>1</title><path class="cls-1" d="M800.59,427.68A100.88,100.88,0,1,1,901.47,326.8,101,101,0,0,1,800.59,427.68Z" transform="translate(-626.52 -200.02)"/><path class="cls-1" d="M936.26,464.27h-1.61a2.17,2.17,0,0,0-2.17,2.17V471a2.17,2.17,0,0,0,2.17,2.18h1.61a2.17,2.17,0,0,0,2.18-2.18v-4.51A2.18,2.18,0,0,0,936.26,464.27Z" transform="translate(-626.52 -200.02)"/><path class="cls-1" d="M969.67,485.1a2,2,0,0,0-1.79-1.07h-1.82a2,2,0,0,0-1.69.9l-4.44,6.62v0a1.67,1.67,0,0,0-.43,1.11,2.09,2.09,0,0,0,.35,1c0.14,0.19,1.16,1.73,1.16,1.73h0a1.89,1.89,0,0,0,1.51.76,1.92,1.92,0,0,0,1.54-.79l0.08-.11,5.42-8.14A2,2,0,0,0,969.67,485.1Z" transform="translate(-626.52 -200.02)"/><rect class="cls-1" y="272.71" width="5.67" height="43.74" rx="2.03" ry="2.03"/><path class="cls-1" d="M735.33,472.73h-1.5a2,2,0,0,0-2,2v39.69a2,2,0,0,0,2,2h1.5a2,2,0,0,0,2-2V474.76A2,2,0,0,0,735.33,472.73Z" transform="translate(-626.52 -200.02)"/><path class="cls-1" d="M924.64,484h-5.27v-9.24a2,2,0,0,0-2-2h-1.5a2,2,0,0,0-2,2V484h-4.25a2,2,0,0,0-2,2v1.39a2,2,0,0,0,2,2h4.25v25a2,2,0,0,0,2,2h1.5a2,2,0,0,0,2-2v-25h5.27a2,2,0,0,0,2-2V486A2,2,0,0,0,924.64,484Z" transform="translate(-626.52 -200.02)"/><path class="cls-1" d="M936.14,484h-1.51a2,2,0,0,0-2,2v28.42a2,2,0,0,0,2,2h1.51a2,2,0,0,0,2-2V486A2,2,0,0,0,936.14,484Z" transform="translate(-626.52 -200.02)"/><path class="cls-1" d="M760.2,483.3a16.86,16.86,0,0,0-15.33,9.46,17.08,17.08,0,0,0-1.71,7.53c0,9.57,7.3,16.82,17,16.88h0a16.6,16.6,0,0,0,14.45-7.76c0.13-.27.26-0.54,0.38-0.82a2,2,0,0,0-.16-1.92,2,2,0,0,0-1.69-.91h-1.67a2,2,0,0,0-1.69.9l0,0a11.05,11.05,0,0,1-9.54,5c-3.66,0-9.14-2.17-10.87-7.75a10.63,10.63,0,0,1-.38-1.55h26.11a2,2,0,0,0,2-1.89l0-.81c0-.07,0-0.14,0-0.22A16.71,16.71,0,0,0,760.2,483.3ZM769.74,497H749.16a11.38,11.38,0,0,1,.57-1.62A11.51,11.51,0,0,1,771.18,497h-1.44Z" transform="translate(-626.52 -200.02)"/><path class="cls-1" d="M851.35,483.46A16.87,16.87,0,0,0,836,492.91a17.22,17.22,0,0,0-1.71,7.53,16.63,16.63,0,0,0,17,16.89h0a16.59,16.59,0,0,0,14.45-7.76c0.13-.27.27-0.53,0.39-0.81a2,2,0,0,0-1.86-2.83h-1.67a2,2,0,0,0-1.68.9l0,0a11.07,11.07,0,0,1-9.55,5c-3.66,0-9.15-2.18-10.88-7.75a12.12,12.12,0,0,1-.38-1.55H866.2a2,2,0,0,0,1.17-.38,2.06,2.06,0,0,0,.87-1.51l0-.81a1.14,1.14,0,0,0,0-.22A16.7,16.7,0,0,0,851.35,483.46Zm9.55,13.67H840.31a10.78,10.78,0,0,1,.58-1.62,11.51,11.51,0,0,1,21.44,1.62H860.9Z" transform="translate(-626.52 -200.02)"/><path class="cls-1" d="M969.72,515.4a2,2,0,0,1-1.79,1.07H966.1a2,2,0,0,1-1.68-.9L960,509v0a1.71,1.71,0,0,1-.42-1.11,2,2,0,0,1,.35-1c0.14-.19,1.16-1.73,1.16-1.73h0a1.89,1.89,0,0,1,3.05,0s0,0.07.07,0.11l5.43,8.13A2.06,2.06,0,0,1,969.72,515.4Z" transform="translate(-626.52 -200.02)"/><path class="cls-1" d="M692.78,499.92c0,0.22,0,.45,0,0.68v-1.35C692.79,499.46,692.78,499.69,692.78,499.92Z" transform="translate(-626.52 -200.02)"/><path class="cls-1" d="M714.85,484a18.3,18.3,0,0,0-5.22-.73,17.69,17.69,0,0,0-7.47,1.58,16.75,16.75,0,0,0-9.36,14.37l0,1.39,0,25.23a2,2,0,0,0,2,2h1.5a2,2,0,0,0,2-2V513.12a17.36,17.36,0,0,0,11.28,4.05A17,17,0,0,0,714.85,484Zm-5.45,4.78c7.61,0,11.6,5.78,11.6,11.5a11.16,11.16,0,0,1-3.19,8.15,11.49,11.49,0,0,1-8.24,3.32A11.49,11.49,0,0,1,709.4,488.82Z" transform="translate(-626.52 -200.02)"/><path class="cls-1" d="M787.78,485.72l0.07,0C787.78,485.53,787.75,485.51,787.78,485.72Z" transform="translate(-626.52 -200.02)"/><path class="cls-1" d="M825.12,486.73a12.64,12.64,0,0,0-9.2-3.44,13.12,13.12,0,0,0-9.76,4.14c-0.17.2-.35,0.4-0.51,0.59-0.14-.18-0.29-0.37-0.45-0.56a12.89,12.89,0,0,0-9.89-4.17,13.17,13.17,0,0,0-7.48,2.37l0,0a12.9,12.9,0,0,0-5.57,10.48l0,0.06v18.2a2,2,0,0,0,2,2h1.51a2,2,0,0,0,2-2v-16.2c0-4,1.16-5.91,2.18-7.13a6.86,6.86,0,0,1,5.18-2.37,7.52,7.52,0,0,1,6,2.57c1.07,1.44,1.63,3,1.63,7.2v15.93a2,2,0,0,0,2,2h1.5a2,2,0,0,0,2-2V498.52c0-4.37.38-5.47,1.78-7.29a7.48,7.48,0,0,1,5.74-2.47,7,7,0,0,1,5.21,1.82c1.54,1.55,2.3,4.15,2.3,7.95v15.93a2,2,0,0,0,2,2H827a2,2,0,0,0,2-2V498.52C829,493.21,827.68,489.24,825.12,486.73Z" transform="translate(-626.52 -200.02)"/><path class="cls-1" d="M682.63,486.73a12.67,12.67,0,0,0-9.21-3.44,13.11,13.11,0,0,0-9.75,4.14l-0.51.59-0.44-.56a12.91,12.91,0,0,0-9.89-4.17,13.15,13.15,0,0,0-7.47,2.37v0a12.94,12.94,0,0,0-5.58,10.48l0,0.06v18.2a2,2,0,0,0,2,2h1.5a2,2,0,0,0,2-2v-16.2c0-4,1.16-5.91,2.17-7.13a6.85,6.85,0,0,1,5.18-2.37,7.51,7.51,0,0,1,6,2.57c1.09,1.44,1.64,3,1.64,7.2v15.93a2,2,0,0,0,2,2h1.5a2,2,0,0,0,2-2V498.52c0-4.37.38-5.47,1.79-7.29a7.48,7.48,0,0,1,5.74-2.47,6.92,6.92,0,0,1,5.21,1.82c1.56,1.55,2.3,4.15,2.3,7.95v15.93a2,2,0,0,0,2,2h1.5a2,2,0,0,0,2-2V498.52C686.5,493.21,685.19,489.24,682.63,486.73Z" transform="translate(-626.52 -200.02)"/><path class="cls-1" d="M899,486.6a13.85,13.85,0,0,0-2.31-1.5,15,15,0,0,0-22.94,12.19c0,0.16,0,.33,0,0.5s0,0.33,0,.49v16.17a2,2,0,0,0,2,2h1.5a2,2,0,0,0,2-2V498.09c0-5.93,3.47-9.34,9.51-9.34,3.81,0,5.65,1.24,6.69,2.16,1.87,1.68,2.81,4.55,2.81,8.52v15a2,2,0,0,0,2,2h1.5a2,2,0,0,0,2-2v-15C903.89,493.66,902.26,489.35,899,486.6Z" transform="translate(-626.52 -200.02)"/><path class="cls-2" d="M856.15,275.62H841.72a5.36,5.36,0,0,0-.9.09,7.11,7.11,0,0,0-4.61,2.72,4.68,4.68,0,0,0-.33.46L824,296.94a4.86,4.86,0,0,0-.52,1,8.8,8.8,0,0,0-.83,3.72,8.93,8.93,0,0,0,.75,3.55,4.88,4.88,0,0,0,.45.91l6.51,9.85a7.2,7.2,0,0,0,6.15,3.59,7.09,7.09,0,0,0,5.45-2.59,5.71,5.71,0,0,0,.51-0.63l19.61-28.81a1.66,1.66,0,0,1,.09-0.15,7.69,7.69,0,0,0,1.25-4.23A7.41,7.41,0,0,0,856.15,275.62Z" transform="translate(-626.52 -200.02)"/><path class="cls-3" d="M825.79,330.16l0.07-.12,0.25-.43a5.53,5.53,0,0,0,.44-0.89,8.81,8.81,0,0,0,0-7.26,5.56,5.56,0,0,0-.42-0.87L801.25,279l0-.06a4.69,4.69,0,0,0-.44-0.64,7.13,7.13,0,0,0-4.6-2.71,4.37,4.37,0,0,0-.91-0.09H783.81a7.41,7.41,0,0,0-7.24,7.57,7.7,7.7,0,0,0,1.25,4.23h0l23.36,37.91L777.11,364.3v0a7.72,7.72,0,0,0-1.24,4.21,7.42,7.42,0,0,0,7.24,7.56h11.46a5.67,5.67,0,0,0,1-.11,7.13,7.13,0,0,0,4.63-2.9c0.11-.15.22-0.3,0.31-0.47l0,0L825.37,331A4.3,4.3,0,0,0,825.79,330.16Z" transform="translate(-626.52 -200.02)"/><path class="cls-2" d="M757.93,312H744.55a4.72,4.72,0,0,0-1.14.14,7.34,7.34,0,0,0-5.75,7.24v49.13a5.14,5.14,0,0,0,.23,1.56,7.22,7.22,0,0,0,5.51,5.4,4.33,4.33,0,0,0,1.15.14h13.38a7.11,7.11,0,0,0,6.76-5.26,5.14,5.14,0,0,0,.33-1.83V319.4a5.19,5.19,0,0,0-.06-0.8A7.2,7.2,0,0,0,757.93,312Z" transform="translate(-626.52 -200.02)"/><path class="cls-2" d="M757.94,275.74H744.55a4.6,4.6,0,0,0-1.12.14,7.34,7.34,0,0,0-5.76,7.24v13.8a5.17,5.17,0,0,0,.23,1.55,7.23,7.23,0,0,0,5.51,5.4,4.82,4.82,0,0,0,1.15.14h13.38a7.11,7.11,0,0,0,6.76-5.26,5.21,5.21,0,0,0,.33-1.84v-13.8a5.24,5.24,0,0,0-.06-0.8A7.21,7.21,0,0,0,757.94,275.74Z" transform="translate(-626.52 -200.02)"/><path class="cls-2" d="M855.06,376.06H840.63a4.53,4.53,0,0,1-.9-0.08,7.13,7.13,0,0,1-4.61-2.72,4.65,4.65,0,0,1-.33-0.45l-11.91-18.07a4.76,4.76,0,0,1-.52-1,8.77,8.77,0,0,1-.07-7.27,5.15,5.15,0,0,1,.44-0.92l6.51-9.86a7.22,7.22,0,0,1,6.15-3.59,7.12,7.12,0,0,1,5.45,2.6,4.1,4.1,0,0,1,.5.64L861,364.13l0.1,0.14a7.76,7.76,0,0,1,1.24,4.24A7.41,7.41,0,0,1,855.06,376.06Z" transform="translate(-626.52 -200.02)"/><path class="cls-3" d="M800.59,200A126.79,126.79,0,1,0,927.38,326.8,126.93,126.93,0,0,0,800.59,200Zm0,227.66A100.88,100.88,0,1,1,901.47,326.8,101,101,0,0,1,800.59,427.68Z" transform="translate(-626.52 -200.02)"/><path class="cls-1" d="M982.85,497.6a6.92,6.92,0,1,1,6.94-6.92A6.69,6.69,0,0,1,982.85,497.6Zm0-12.23a5.32,5.32,0,0,0,0,10.62h0v0A5.33,5.33,0,0,0,982.85,485.37Zm-1.15,9H980.1v-7.45h2.78c1.92,0,3.06.55,3.06,2.25a1.74,1.74,0,0,1-1.79,1.94l1.9,3.26h-1.89l-1.72-3.13H981.7v3.13Zm1.41-4.4c0.71,0,1.13-.15,1.13-1s-0.82-.82-1.42-0.82H981.7V490h1.41Z" transform="translate(-626.52 -200.02)"/><path class="cls-1" d="M960,499.46a1.8,1.8,0,0,0-.17-0.3h0l-3.15-5L950.52,485a2,2,0,0,0-1.68-.9h-1.93a2,2,0,0,0-1.67,3.14l8.71,13-8.72,13.1a2,2,0,0,0,1.68,3.15h1.93a2,2,0,0,0,1.68-.91l6.77-10.23h0l2.48-3.84,0.07-.11a2,2,0,0,0,.31-1.07A2.12,2.12,0,0,0,960,499.46Z" transform="translate(-626.52 -200.02)"/></svg>